<svg xmlns="http://www.w3.org/2000/svg" xmlns:xlink="http://www.w3.org/1999/xlink" aria-hidden="true" role="img" class="iconify iconify--logos" width="31.88" height="32" preserveAspectRatio="xMidYMid meet" viewBox="0 0 256 257"><defs><linearGradient id="IconifyId181E55930D181E55931" x1="-.828%" x2="57.636%" y1="7.652%" y2="78.411%"><stop offset="0%" stop-color="#41D1FF"></stop><stop offset="100%" stop-color="#BD34FE"></stop></linearGradient><linearGradient id="IconifyId181E55930D181E55932" x1="43.376%" x2="50.325%" y1="2.242%" y2="89.03%"><stop offset="0%" stop-color="#FFEA83"></stop><stop offset="8.333%" stop-color="#FFDD35"></stop><stop offset="100%" stop-color="#FFA800"></stop></linearGradient></defs><path fill="url(#IconifyId181E55930D181E55931)" d="M255.803 116.73l-117.477 220.485c-2.43 4.561-9.424 4.561-11.854 0L9.047 116.735c-2.426-4.565 1.069-10.033 6.061-10.033h234.635c4.99 0 8.485 5.468 6.06 10.028Z"></path><path fill="url(#IconifyId181E55930D181E55932)" d="M150.31 1.674l-95.88 43.106c-4.66 2.097-4.824 8.637-.25 10.966l18.065 9.205c3.22 1.64 7.202 1.343 10.126-.755L162.05 10.42c2.193-1.579 5.242.067 5.242 2.752v32.227c0 1.256.702 2.405 1.83 2.946l19.98 9.58c3.96 1.898 8.046-2.097 5.867-5.74L156.41 2.217c-1.44-2.413-4.66-2.413-6.1 0Z"></path></svg>
